<?xml version="1.0" encoding="UTF-8" standalone="no"?>
<!-- Created with Inkscape (http://www.inkscape.org/) -->

<svg
   width="500"
   height="500"
   viewBox="0 0 132.29166 132.29167"
   version="1.1"
   id="svg1"
   xml:space="preserve"
   inkscape:version="1.3.2 (091e20e, 2023-11-25, custom)"
   sodipodi:docname="icon-nextwork.svg"
   xmlns:inkscape="http://www.inkscape.org/namespaces/inkscape"
   xmlns:sodipodi="http://sodipodi.sourceforge.net/DTD/sodipodi-0.dtd"
   xmlns="http://www.w3.org/2000/svg"
   xmlns:svg="http://www.w3.org/2000/svg"><sodipodi:namedview
     id="namedview1"
     pagecolor="#505050"
     bordercolor="#ffffff"
     borderopacity="1"
     inkscape:showpageshadow="0"
     inkscape:pageopacity="0"
     inkscape:pagecheckerboard="1"
     inkscape:deskcolor="#505050"
     inkscape:document-units="px"
     inkscape:zoom="1.3843855"
     inkscape:cx="270.51714"
     inkscape:cy="255.34795"
     inkscape:window-width="1920"
     inkscape:window-height="991"
     inkscape:window-x="-9"
     inkscape:window-y="-9"
     inkscape:window-maximized="1"
     inkscape:current-layer="layer1" /><defs
     id="defs1" /><g
     inkscape:label="Layer 1"
     inkscape:groupmode="layer"
     id="layer1"><path
       style="fill:#f9f9f9;stroke-width:4.10831"
       d="m 64.515232,92.037069 -0.2847,-40.25459 -32.32438,-12.57313 C 14.127712,32.29413 -0.22877816,26.446756 0.00276184,26.215183 0.23447184,25.983597 15.193622,19.990464 33.245592,12.897075 L 66.067392,0 l 32.51939,12.666242 32.519398,12.66624 -0.28471,40.658967 -0.28471,40.658981 -22.82681,8.89128 c -12.554758,4.8902 -27.345508,10.65949 -32.868348,12.82062 l -10.04154,3.92934 z m 29.20916,15.856241 4.5659,-1.74374 0.9793,-7.76744 c 0.954148,-7.568241 0.999878,-7.655931 1.783248,-3.419461 1.86066,10.062811 1.13266,9.269601 6.60202,7.193491 2.66568,-1.01187 5.10104,-2.09417 5.412,-2.40511 0.65734,-0.65732 8.42812,-48.976261 7.95292,-49.451471 -0.17502,-0.17513 -2.31027,0.57331 -4.74469,1.66322 l -4.42618,1.98168 -1.94914,12.11467 c -1.07199,6.66307 -2.24783,11.81782 -2.61294,11.455 -0.36522,-0.36281 -1.22041,-4.8052 -1.90066,-9.87195 -0.6803,-5.06676 -1.52061,-9.49603 -1.86739,-9.84282 -0.34675,-0.34679 -2.05437,-0.0406 -3.794558,0.68006 -3.11197,1.289 -3.18934,1.52855 -4.69897,14.54894 l -1.53491,13.23836 -1.21269,-5.43495 c -0.66699,-2.98924 -1.78075,-8.24026 -2.47505,-11.66895 l -1.26237,-6.23399 -3.94665,1.64903 c -2.1707,0.90695 -4.18481,1.88714 -4.47584,2.17817 -0.53017,0.53019 6.26247,40.531781 7.14316,42.065751 0.65418,1.1394 1.28669,1.04853 6.46349,-0.92849 z m -53.67737,4.58613 c -3.13743,-1.32171 -6.13967,-2.86881 -6.67157,-3.438 -0.53195,-0.56918 -4.07927,-8.86122 -7.88295,-18.426731 l -6.91577,-17.39186 -0.30319,15.05039 c -0.2276,11.296111 -0.63425,14.927121 -1.63051,14.556251 -0.73005,-0.27176 -3.16167,-1.15068 -5.40358,-1.95311 L 7.1632218,99.4174 V 74.518669 c 0,-19.4826 0.29539,-24.78115 1.35874,-24.3582 0.74731,0.29727 3.5598902,1.3989 6.2502302,2.44804 2.69028,1.04914 5.42987,2.44796 6.08798,3.1085 0.65807,0.66052 4.05232,7.95503 7.54275,16.20998 3.49041,8.25496 6.74285,15.25416 7.22762,15.55377 0.48483,0.29962 0.88144,-5.35386 0.88144,-12.56328 0,-7.20943 0.35044,-13.10804 0.7789,-13.10804 0.42842,0 2.87413,0.80017 5.43497,1.77816 l 4.65607,1.77816 v 24.85313 c 0,13.669211 -0.36687,24.810481 -0.81525,24.758401 -0.44838,-0.0521 -3.38225,-1.17613 -6.51973,-2.49785 z"
       id="path1" /></g></svg>
