<?xml version="1.0" encoding="UTF-8" standalone="no"?>
<!-- Created with Inkscape (http://www.inkscape.org/) -->

<svg
   width="500"
   height="500"
   viewBox="0 0 132.29166 132.29167"
   version="1.1"
   id="svg1"
   xml:space="preserve"
   inkscape:version="1.3.2 (091e20e, 2023-11-25, custom)"
   sodipodi:docname="icon-sot.svg"
   xmlns:inkscape="http://www.inkscape.org/namespaces/inkscape"
   xmlns:sodipodi="http://sodipodi.sourceforge.net/DTD/sodipodi-0.dtd"
   xmlns="http://www.w3.org/2000/svg"
   xmlns:svg="http://www.w3.org/2000/svg"><sodipodi:namedview
     id="namedview1"
     pagecolor="#505050"
     bordercolor="#ffffff"
     borderopacity="1"
     inkscape:showpageshadow="0"
     inkscape:pageopacity="0"
     inkscape:pagecheckerboard="1"
     inkscape:deskcolor="#505050"
     inkscape:document-units="px"
     inkscape:zoom="1.3843855"
     inkscape:cx="270.51713"
     inkscape:cy="256.07029"
     inkscape:window-width="1920"
     inkscape:window-height="991"
     inkscape:window-x="-9"
     inkscape:window-y="-9"
     inkscape:window-maximized="1"
     inkscape:current-layer="layer1" /><defs
     id="defs1" /><g
     inkscape:label="Layer 1"
     inkscape:groupmode="layer"
     id="layer1"><path
       style="fill:#f9f9f9;stroke-width:1.90476"
       d="M 1.25992,98.505442 0,97.856322 l 0.08202,-2.49325 0.08202,-2.49326 5.090082,-22.426581 5.090081,-22.426588 1.549351,-6.679733 1.549352,-6.679733 1.076198,-0.753798 1.076198,-0.7538 h 6.663331 6.663334 l 1.222542,1.133929 1.222543,1.133928 6.672853,29.734128 6.672855,29.734128 0.0072,1.22947 0.0072,1.22946 -1.126763,0.9124 -1.126764,0.9124 h -5.968074 -5.968074 l -1.286322,-0.58609 -1.286322,-0.58609 -0.459867,-1.80776 -0.459868,-1.80776 -0.331021,-1.76389 -0.331023,-1.76389 -0.24832,-0.88194 -0.248322,-0.88195 H 21.960437 18.03438 l -0.824691,4.15774 -0.824692,4.15774 -1.066756,0.88194 -1.066756,0.88195 -5.865796,-0.007 -5.865794,-0.007 z m 13.303295,-7.52551 0.956072,-4.91369 h 6.443497 6.443499 l 0.2598,0.88195 0.2598,0.88194 0.556259,3.2758 0.556259,3.27579 0.2598,0.88194 0.2598,0.88195 h 5.509689 5.509689 v -0.78215 -0.78215 L 38.067972,79.110484 34.558564,63.639659 31.516385,50.206125 28.474205,36.772592 V 36.47299 36.173388 H 22.410771 16.347335 L 16.106706,36.80335 15.866077,37.43331 9.318952,66.387957 2.771825,95.342602 v 0.41856 0.41855 l 5.417658,-0.14305 5.417659,-0.14305 z m 3.034986,-15.874995 0.291381,-1.385914 1.780023,-9.575396 1.780021,-9.575398 0.378634,-0.929861 0.378632,-0.92986 2.137035,11.513195 2.137036,11.513194 -0.01124,0.377975 -0.01124,0.377977 h -4.575756 -4.575758 z m 5.282118,-2.519842 -0.05023,-0.881944 -0.384361,-1.25992 -0.384362,-1.259922 -0.279261,0.755952 -0.279263,0.755952 -0.303678,1.385915 -0.303678,1.385912 h 1.017537 1.017539 z m 36.587932,26.099757 -1.007935,-0.42068 -5.165674,-5.26995 -5.165676,-5.26995 V 61.673938 35.623605 l 1.237013,-1.237013 1.237013,-1.237013 h 6.254547 6.254546 l 1.327884,1.044514 1.327885,1.044516 v 23.649929 23.64993 h 2.519843 2.51984 V 58.661684 34.784901 l 0.83159,-0.691669 0.83159,-0.691668 6.6896,-0.164324 6.6896,-0.164324 1.04627,1.04627 1.04627,1.046273 v 26.36022 26.360213 l -5.71825,5.64177 -5.71825,5.64176 -8.01489,-0.0319 -8.014879,-0.0319 z m 20.779226,-7.19099 4.67117,-4.65176 V 61.507747 36.173388 h -5.54365 -5.54365 v 24.694445 24.694449 h -5.54365 -5.543652 V 60.851328 36.140379 l -5.669642,0.142495 -5.669643,0.142495 -0.1308,24.93258 -0.1308,24.932583 4.909049,4.92754 4.909049,4.92753 h 7.307529 7.30752 z m 24.555013,6.43854 -1.23702,-1.23701 V 73.237964 49.780532 h -4.306633 -4.30664 l -1.23701,-1.237013 -1.23702,-1.237013 v -5.841451 -5.84145 l 1.23702,-1.237013 1.23701,-1.237013 H 112.614 130.27578 l 1.00795,1.007937 1.00794,1.007937 -0.008,6.173611 -0.008,6.173611 -0.37027,0.554515 -0.37026,0.554514 -1.1008,0.579413 -1.10078,0.579415 h -4.06489 -4.06488 l -0.008,23.560516 -0.008,23.560514 -0.37026,0.55452 -0.37026,0.55451 -1.1008,0.57941 -1.1008,0.57942 h -6.10366 -6.10365 z M 118.18055,71.451166 V 46.756723 h 5.54365 5.54366 V 41.465055 36.173388 H 112.38492 95.501977 v 5.291667 5.291668 h 5.543653 5.54365 v 24.358464 24.358465 l 0.33598,0.33598 0.33598,0.33598 h 5.45966 5.45965 z"
       id="path1" /></g></svg>
