<?xml version="1.0" encoding="UTF-8" standalone="no"?>
<!-- Created with Inkscape (http://www.inkscape.org/) -->

<svg
   width="500"
   height="500"
   viewBox="0 0 132.29166 132.29167"
   version="1.1"
   id="svg1"
   xml:space="preserve"
   inkscape:version="1.3.2 (091e20e, 2023-11-25, custom)"
   sodipodi:docname="icon-sot.svg"
   xmlns:inkscape="http://www.inkscape.org/namespaces/inkscape"
   xmlns:sodipodi="http://sodipodi.sourceforge.net/DTD/sodipodi-0.dtd"
   xmlns="http://www.w3.org/2000/svg"
   xmlns:svg="http://www.w3.org/2000/svg"><sodipodi:namedview
     id="namedview1"
     pagecolor="#505050"
     bordercolor="#ffffff"
     borderopacity="1"
     inkscape:showpageshadow="0"
     inkscape:pageopacity="0"
     inkscape:pagecheckerboard="1"
     inkscape:deskcolor="#505050"
     inkscape:document-units="px"
     inkscape:zoom="1.3843855"
     inkscape:cx="253.90326"
     inkscape:cy="236.56705"
     inkscape:window-width="1920"
     inkscape:window-height="991"
     inkscape:window-x="-9"
     inkscape:window-y="-9"
     inkscape:window-maximized="1"
     inkscape:current-layer="layer1" /><defs
     id="defs1" /><g
     inkscape:label="Layer 1"
     inkscape:groupmode="layer"
     id="layer1"><path
       style="fill:#be1826;fill-opacity:1;stroke-width:1.52861"
       d="M 54.977551,131.88313 C 24.089704,128.25198 0,99.468951 0,66.194462 0,8.9846218 65.164362,-21.295475 105.31061,17.259501 c 15.24461,14.64036 26.50326,45.713512 16.56324,45.713512 -2.6802,0 -3.61355,-1.473711 -4.36183,-6.887128 C 110.04941,2.0972628 36.666911,-9.2897372 13.607414,39.962671 -13.488969,97.837401 54.29802,151.69985 100.5876,109.07572 c 7.32993,-6.74952 11.06605,-0.33395 3.92803,6.74512 -11.98111,11.88214 -31.436307,18.19033 -49.538079,16.06229 z m 3.906136,-25.60715 c -5.734751,-1.92225 -9.161745,-4.4187 -15.266149,-11.120889 -4.176307,-4.58528 -4.35824,-4.67428 -11.958576,-5.8498 -8.854696,-1.36954 -8.802766,-1.33163 -10.223916,-7.4638 -8.548549,-36.88644 11.949074,-61.774584 49.467388,-60.063132 20.598796,0.939645 26.349006,5.87492 32.466176,27.864977 1.2649,4.547071 2.58996,9.277072 2.94459,10.511113 0.41327,1.438104 4.42546,5.093936 11.17443,10.181915 14.49213,10.925497 17.20582,16.245327 13.01335,25.511007 -4.29072,9.482819 -14.24982,8.863119 -23.49161,-1.46177 -3.27835,-3.66255 -3.04602,-3.70141 -9.66076,1.61568 C 84.17077,106.59393 70.626104,110.21197 58.883687,106.27598 Z M 82.38054,95.746261 c 3.37887,-1.70808 9.30287,-5.6339 13.16444,-8.72405 3.86157,-3.09015 9.11045,-6.79428 11.66419,-8.23138 l 4.64315,-2.61292 -5.22146,-3.841209 C 96.27388,64.717525 82.41004,67.837958 57.148703,83.474011 c -8.535195,5.28304 -8.862603,5.90351 -4.941158,9.36405 8.81069,7.775129 18.666247,8.725049 30.172995,2.9082 z m 41.13909,-4.34127 c 2.02624,-6.08008 -1.33774,-9.15681 -7.90373,-7.22883 -5.25367,1.54265 -5.33271,2.04377 -1.00292,6.35817 4.42176,4.40603 7.62413,4.71908 8.90665,0.87066 z M 53.932114,75.774993 C 71.028195,65.165192 83.49332,60.211772 93.09648,60.211772 c 5.40818,0 5.29879,0.437677 2.34618,-9.386726 C 90.16063,33.249791 87.20798,30.832643 70.093733,30.073512 40.140695,28.744894 23.335204,46.570221 28.305231,74.397937 c 1.170559,6.554084 0.527763,5.854444 6.301501,6.858804 7.992894,1.3904 8.470045,1.25506 19.325382,-5.481748 z"
       id="path1" /></g></svg>
