<?xml version="1.0" encoding="UTF-8" standalone="no"?>
<!-- Created with Inkscape (http://www.inkscape.org/) -->

<svg
   width="500"
   height="500"
   viewBox="0 0 132.29166 132.29167"
   version="1.1"
   id="svg1"
   xml:space="preserve"
   inkscape:version="1.3.2 (091e20e, 2023-11-25, custom)"
   sodipodi:docname="icon-msa.svg"
   xmlns:inkscape="http://www.inkscape.org/namespaces/inkscape"
   xmlns:sodipodi="http://sodipodi.sourceforge.net/DTD/sodipodi-0.dtd"
   xmlns="http://www.w3.org/2000/svg"
   xmlns:svg="http://www.w3.org/2000/svg"><sodipodi:namedview
     id="namedview1"
     pagecolor="#505050"
     bordercolor="#ffffff"
     borderopacity="1"
     inkscape:showpageshadow="0"
     inkscape:pageopacity="0"
     inkscape:pagecheckerboard="1"
     inkscape:deskcolor="#505050"
     inkscape:document-units="px"
     inkscape:zoom="1.3843855"
     inkscape:cx="270.87831"
     inkscape:cy="254.62561"
     inkscape:window-width="1920"
     inkscape:window-height="991"
     inkscape:window-x="-9"
     inkscape:window-y="-9"
     inkscape:window-maximized="1"
     inkscape:current-layer="layer1" /><defs
     id="defs1" /><g
     inkscape:label="Layer 1"
     inkscape:groupmode="layer"
     id="layer1"><path
       style="fill:#5c2d95;stroke-width:2.51923;fill-opacity:1"
       d="m 67.720989,130.92046 c -1.822257,-1.11096 -2.88925,-1.28904 -5.66564,-0.94564 -4.058985,0.50203 -7.086581,-0.44926 -7.086581,-2.2267 0,-2.89948 1.863744,-3.44734 17.996356,-5.29023 15.21692,-1.7383 15.498094,-1.74668 16.416501,-0.49067 0.829607,1.13453 0.757763,1.45458 -0.64039,2.85275 -0.959245,0.95925 -2.706153,1.72658 -4.469033,1.96303 -2.212324,0.29674 -3.468265,0.99167 -5.330864,2.94966 -2.181037,2.29276 -2.779678,2.56123 -5.705979,2.55899 -2.120816,-0.001 -4.057979,-0.48331 -5.51437,-1.37119 z m -12.57092,-9.38252 c -3.23142,-1.66612 -2.346631,-6.66782 1.387298,-7.84236 2.501574,-0.78691 22.089171,-2.73984 27.177843,-2.70971 1.969576,0.0126 4.105956,0.41965 4.747499,0.90667 1.454936,1.10443 1.560794,5.2471 0.163753,6.40655 -2.449764,2.03312 -30.543223,4.75117 -33.476367,3.23885 z m -1.18112,-10.83246 c -2.861994,-1.25027 -6.203618,-4.22694 -7.467932,-6.6523 C 45.902693,102.90539 45.0413,99.663699 44.586813,96.849409 43.379276,89.372035 42.036365,85.323432 38.656425,78.970454 30.892673,64.377597 25.16854,52.233865 24.347652,48.614439 23.097657,43.103025 23.242596,34.091126 24.647357,29.979306 29.770223,14.984384 39.403259,6.1203633 55.635314,1.4651466 62.18713,-0.41385859 74.383271,-0.49868119 81.297343,1.2866597 97.962991,5.5900713 110.20457,18.79576 112.01121,34.419639 c 0.95035,8.218592 -2.66,21.904108 -8.40488,31.859786 -5.307199,9.197066 -9.105875,21.236432 -10.313673,32.687414 -0.837743,7.942731 -2.408511,9.066031 -14.032491,10.034921 -4.745159,0.39552 -10.727185,1.1487 -13.293384,1.67375 -5.716418,1.16956 -9.368329,1.17867 -11.997833,0.03 z M 53.600396,98.671119 c 2.138317,-2.27612 5.434759,-3.70355 8.552863,-3.70355 3.745011,0 4.319275,-1.02691 4.386159,-7.843395 C 66.6086,80.073031 65.578785,76.28331 62.760572,73.218101 60.925494,71.222198 59.813126,70.726882 54.635494,69.60015 47.20428,67.982994 42.276599,65.63016 39.651808,62.445836 31.826726,52.952653 48.408429,46.60188 59.538057,54.829427 c 2.9457,2.1776 5.788147,6.750647 6.788907,10.922275 0.84649,3.528561 1.942411,3.358045 1.962518,-0.305363 0.01387,-2.538444 2.235341,-6.696507 4.30042,-8.0496 0.935444,-0.61293 3.542622,-1.58627 5.79372,-2.162974 3.408708,-0.873273 4.583557,-0.911182 7.02802,-0.226777 4.386412,1.228113 6.520355,4.663711 5.136564,8.269762 -0.700246,1.824837 -4.054302,3.067159 -10.115832,3.746832 -7.661554,0.85909 -8.097071,1.032355 -9.194071,3.657857 -1.144279,2.738633 -1.311746,18.344858 -0.218774,20.387095 0.858668,1.604425 4.472659,3.232475 7.175547,3.232475 2.363263,0 5.804036,1.38215 8.269813,3.32198 2.164703,1.70298 1.985179,2.05897 3.524104,-6.987989 1.283478,-7.545219 4.185348,-16.148357 6.491453,-19.245033 2.30834,-3.099686 6.755084,-12.0689 8.799184,-17.748284 2.16984,-6.028828 2.93962,-15.630903 1.72162,-21.475763 C 102.25245,9.3775263 71.615422,-2.1568656 47.636764,9.8160333 41.382252,12.939006 34.558554,19.93482 31.263124,26.602669 c -2.354778,4.764569 -2.606063,5.796335 -2.841934,11.668775 -0.385701,9.602879 1.784102,17.006825 8.215833,28.034623 6.827347,11.706114 9.710553,17.984984 11.645938,25.361791 2.537414,9.671452 2.659607,9.832382 5.31744,7.003261 z"
       id="path1" /></g></svg>
