<?xml version="1.0" encoding="UTF-8" standalone="no"?>
<!-- Created with Inkscape (http://www.inkscape.org/) -->

<svg
   width="500"
   height="500"
   viewBox="0 0 132.29166 132.29167"
   version="1.1"
   id="svg1"
   xml:space="preserve"
   inkscape:version="1.3.2 (091e20e, 2023-11-25, custom)"
   sodipodi:docname="icon-csea.svg"
   xmlns:inkscape="http://www.inkscape.org/namespaces/inkscape"
   xmlns:sodipodi="http://sodipodi.sourceforge.net/DTD/sodipodi-0.dtd"
   xmlns="http://www.w3.org/2000/svg"
   xmlns:svg="http://www.w3.org/2000/svg"><sodipodi:namedview
     id="namedview1"
     pagecolor="#505050"
     bordercolor="#ffffff"
     borderopacity="1"
     inkscape:showpageshadow="0"
     inkscape:pageopacity="0"
     inkscape:pagecheckerboard="1"
     inkscape:deskcolor="#505050"
     inkscape:document-units="px"
     inkscape:zoom="1.3843855"
     inkscape:cx="206.58986"
     inkscape:cy="254.62561"
     inkscape:window-width="1920"
     inkscape:window-height="991"
     inkscape:window-x="-9"
     inkscape:window-y="-9"
     inkscape:window-maximized="1"
     inkscape:current-layer="layer1" /><defs
     id="defs1" /><g
     inkscape:label="Layer 1"
     inkscape:groupmode="layer"
     id="layer1"><path
       style="fill:#ff7000;fill-opacity:1;stroke-width:1.03639"
       d="M 11.347418,81.0669 C 5.8644123,79.934405 2.0306782,76.442633 0.4844831,71.172919 0.0993464,69.860304 -0.0149967,68.51349 0.0015321,65.484378 c 0.019203,-3.519221 0.1042427,-4.200826 0.7507884,-6.017669 0.9163909,-2.575129 2.0980127,-4.298824 4.1677478,-6.079718 2.8612503,-2.46195 6.1252997,-3.585054 11.1375307,-3.832236 3.387265,-0.167046 5.855119,0.139866 9.102875,1.132068 3.389514,1.03551 3.297211,0.756722 1.570476,4.743387 -0.819378,1.891771 -1.57208,3.641844 -1.672673,3.889051 -0.165876,0.407645 -0.400481,0.375536 -2.521277,-0.345063 -7.259257,-2.466535 -10.806856,-0.34229 -10.872336,6.51018 -0.05349,5.59761 2.179663,7.895734 7.201563,7.411089 2.067823,-0.199558 5.646906,-1.224512 7.008349,-2.007004 0.48736,-0.280112 0.966928,-0.509294 1.065706,-0.509294 0.09877,0 0.179598,1.899982 0.179598,4.222181 v 4.22218 l -1.207801,0.649383 c -0.664291,0.35716 -2.102995,0.914725 -3.197121,1.239033 -2.633693,0.780649 -8.430222,0.961646 -11.36754,0.354954 z m 26.952886,0.03333 c -1.118888,-0.18903 -2.685478,-0.54504 -3.48131,-0.791138 l -1.446966,-0.44745 V 75.55012 71.238597 L 35.2903,71.88739 c 4.892653,1.654781 10.810996,2.283847 12.395128,1.317489 0.411726,-0.251162 0.748592,-0.665547 0.748592,-0.920854 0,-0.967746 -0.931132,-1.621394 -4.046071,-2.840317 -8.252127,-3.229183 -10.214074,-4.826926 -11.040959,-8.991381 -0.817774,-4.118568 1.237227,-7.829831 5.292673,-9.558392 3.003541,-1.280206 8.205379,-1.758325 12.352053,-1.135322 2.559942,0.38461 7.957279,2.083903 7.957279,2.505263 0,0.278617 -2.727967,6.455761 -2.936925,6.650303 -0.03402,0.03167 -1.401315,-0.370814 -3.038433,-0.894416 -4.390716,-1.404287 -8.249553,-1.545615 -8.668234,-0.31747 -0.315915,0.926692 0.838171,1.709159 4.659263,3.158966 7.523396,2.854544 9.609149,4.654972 10.246465,8.844781 0.909442,5.978806 -2.322399,10.080617 -8.976837,11.393286 -2.416655,0.476714 -9.11456,0.47722 -11.93399,9.01e-4 z M 76.503849,81.08378 C 67.757555,79.255423 63.324405,72.682435 64.37702,63.103449 c 0.492123,-4.478401 2.059457,-7.707927 4.891074,-10.078165 2.683425,-2.246191 5.567984,-3.230994 10.142474,-3.462691 8.798119,-0.445623 14.798534,3.156648 16.474815,9.890437 0.18852,0.757343 0.36339,3.079061 0.38859,5.159375 l 0.0458,3.782389 -10.196336,0.06952 -10.196334,0.06952 0.167287,0.95975 c 0.256957,1.474206 1.399007,2.858153 2.942178,3.565361 2.68673,1.231282 8.716108,0.899831 12.981005,-0.713599 0.935221,-0.353799 1.806237,-0.64327 1.935593,-0.64327 0.129356,0 0.235192,1.711745 0.235192,3.803877 v 3.803876 l -1.349895,0.538322 c -2.822807,1.125702 -4.626362,1.412548 -9.591363,1.525454 -3.633861,0.08264 -5.305081,0.0108 -6.743264,-0.289839 z m 9.165162,-20.46214 c -0.471893,-2.402557 -2.17363,-3.736217 -4.767375,-3.736217 -2.277599,0 -4.056567,1.413846 -4.577529,3.638021 l -0.263384,1.124479 h 4.904932 4.904931 z m 22.018309,20.499928 c -4.61566,-1.35904 -6.87656,-4.792916 -6.62876,-10.067834 0.0925,-1.969386 0.26057,-2.703129 0.89606,-3.912426 1.92665,-3.666253 6.24108,-5.377096 14.40045,-5.71035 l 4.40492,-0.17991 -0.0699,-1.058333 c -0.0772,-1.168682 -0.75829,-2.197638 -1.80469,-2.726456 -1.17328,-0.592938 -4.86099,-0.246483 -7.79672,0.73249 -1.40183,0.467464 -2.78903,0.869216 -3.08268,0.892783 -0.42248,0.03391 -0.84907,-0.619812 -2.04387,-3.132151 -0.83048,-1.74625 -1.51739,-3.309166 -1.52646,-3.473147 -0.0213,-0.384525 2.1659,-1.256827 4.84065,-1.930574 3.95086,-0.99519 10.11135,-1.382445 13.23064,-0.831693 4.13794,0.730607 7.27806,2.835473 8.79619,5.896211 l 0.82441,1.66212 0.0821,11.840104 0.0821,11.840105 h -3.98612 -3.98611 l -1.03156,-1.918229 c -0.56735,-1.055026 -1.07288,-1.960752 -1.12341,-2.012723 -0.0505,-0.05197 -0.74687,0.515333 -1.54745,1.260678 -2.49952,2.32709 -5.1389,3.214577 -9.46244,3.181741 -1.28181,-0.0097 -2.84211,-0.168317 -3.46732,-0.352406 z m 11.13379,-7.992976 c 1.5185,-1.055522 1.92189,-1.845912 2.03841,-3.99409 l 0.10911,-2.011576 -2.36235,0.183421 c -4.1522,0.322391 -5.80356,1.444629 -5.80356,3.943995 0,1.099628 0.12352,1.390234 0.8321,1.957689 0.74049,0.592991 1.02962,0.654664 2.62569,0.560046 1.21687,-0.07214 2.04019,-0.277758 2.5606,-0.639485 z"
       id="path1"
       sodipodi:nodetypes="ssssssssssssssscssssscccsssssssssssssssssssssscccssssscssssssscccscssscssssssssscccccscscccsscsssss" /></g></svg>
